<svg width="1440" height="800" viewBox="0 0 1440 800" fill="none" xmlns="http://www.w3.org/2000/svg">
<rect width="1440" height="800" fill="#1268B3"/>
<rect x="1175" y="347" width="265" height="287" fill="#075CA6"/>
<g filter="url(#filter0_d_101_5)">
<rect x="1133" y="400" width="265" height="287" fill="#3A73A5"/>
</g>
<circle cx="346.5" cy="191.5" r="2.5" fill="#BFC5D3"/>
<circle cx="346.5" cy="241.5" r="2.5" fill="#BFC5D3"/>
<circle cx="346.5" cy="291.5" r="2.5" fill="#BFC5D3"/>
<circle cx="346.5" cy="341.5" r="2.5" fill="#BFC5D3"/>
<circle cx="346.5" cy="391.5" r="2.5" fill="#BFC5D3"/>
<circle cx="346.5" cy="441.5" r="2.5" fill="#BFC5D3"/>
<circle cx="296.5" cy="191.5" r="2.5" fill="#BFC5D3"/>
<circle cx="296.5" cy="241.5" r="2.5" fill="#BFC5D3"/>
<circle cx="296.5" cy="291.5" r="2.5" fill="#BFC5D3"/>
<circle cx="296.5" cy="341.5" r="2.5" fill="#BFC5D3"/>
<circle cx="296.5" cy="391.5" r="2.5" fill="#BFC5D3"/>
<circle cx="296.5" cy="441.5" r="2.5" fill="#BFC5D3"/>
<circle cx="246.5" cy="191.5" r="2.5" fill="#BFC5D3"/>
<circle cx="246.5" cy="241.5" r="2.5" fill="#BFC5D3"/>
<circle cx="246.5" cy="291.5" r="2.5" fill="#BFC5D3"/>
<circle cx="246.5" cy="341.5" r="2.5" fill="#BFC5D3"/>
<circle cx="246.5" cy="391.5" r="2.5" fill="#BFC5D3"/>
<circle cx="246.5" cy="441.5" r="2.5" fill="#BFC5D3"/>
<circle cx="196.5" cy="191.5" r="2.5" fill="#BFC5D3"/>
<circle cx="196.5" cy="241.5" r="2.5" fill="#BFC5D3"/>
<circle cx="196.5" cy="291.5" r="2.5" fill="#BFC5D3"/>
<circle cx="196.5" cy="341.5" r="2.5" fill="#BFC5D3"/>
<circle cx="196.5" cy="391.5" r="2.5" fill="#BFC5D3"/>
<circle cx="196.5" cy="441.5" r="2.5" fill="#BFC5D3"/>
<circle cx="146.5" cy="191.5" r="2.5" fill="#BFC5D3"/>
<circle cx="146.5" cy="241.5" r="2.5" fill="#BFC5D3"/>
<circle cx="146.5" cy="291.5" r="2.5" fill="#BFC5D3"/>
<circle cx="146.5" cy="341.5" r="2.5" fill="#BFC5D3"/>
<circle cx="146.5" cy="391.5" r="2.5" fill="#BFC5D3"/>
<circle cx="146.5" cy="441.5" r="2.5" fill="#BFC5D3"/>
<circle cx="96.5" cy="191.5" r="2.5" fill="#BFC5D3"/>
<circle cx="96.5" cy="241.5" r="2.5" fill="#BFC5D3"/>
<circle cx="96.5" cy="291.5" r="2.5" fill="#BFC5D3"/>
<circle cx="96.5" cy="341.5" r="2.5" fill="#BFC5D3"/>
<circle cx="96.5" cy="391.5" r="2.5" fill="#BFC5D3"/>
<circle cx="96.5" cy="441.5" r="2.5" fill="#BFC5D3"/>
<circle cx="399.5" cy="291.5" r="2.5" fill="#BFC5D3"/>
<circle cx="399.5" cy="341.5" r="2.5" fill="#BFC5D3"/>
<circle cx="399.5" cy="391.5" r="2.5" fill="#BFC5D3"/>
<circle cx="399.5" cy="441.5" r="2.5" fill="#BFC5D3"/>
<circle cx="399.5" cy="491.5" r="2.5" fill="#BFC5D3"/>
<circle cx="399.5" cy="541.5" r="2.5" fill="#BFC5D3"/>
<circle cx="349.5" cy="291.5" r="2.5" fill="#BFC5D3"/>
<circle cx="349.5" cy="341.5" r="2.5" fill="#BFC5D3"/>
<circle cx="349.5" cy="391.5" r="2.5" fill="#BFC5D3"/>
<circle cx="349.5" cy="441.5" r="2.5" fill="#BFC5D3"/>
<circle cx="349.5" cy="491.5" r="2.5" fill="#BFC5D3"/>
<circle cx="349.5" cy="541.5" r="2.5" fill="#BFC5D3"/>
<circle cx="299.5" cy="291.5" r="2.5" fill="#BFC5D3"/>
<circle cx="299.5" cy="341.5" r="2.5" fill="#BFC5D3"/>
<circle cx="299.5" cy="391.5" r="2.5" fill="#BFC5D3"/>
<circle cx="299.5" cy="441.5" r="2.5" fill="#BFC5D3"/>
<circle cx="299.5" cy="491.5" r="2.5" fill="#BFC5D3"/>
<circle cx="299.5" cy="541.5" r="2.5" fill="#BFC5D3"/>
<circle cx="249.5" cy="291.5" r="2.5" fill="#BFC5D3"/>
<circle cx="249.5" cy="341.5" r="2.5" fill="#BFC5D3"/>
<circle cx="249.5" cy="391.5" r="2.5" fill="#BFC5D3"/>
<circle cx="249.5" cy="441.5" r="2.5" fill="#BFC5D3"/>
<circle cx="249.5" cy="491.5" r="2.5" fill="#BFC5D3"/>
<circle cx="249.5" cy="541.5" r="2.5" fill="#BFC5D3"/>
<circle cx="199.5" cy="291.5" r="2.5" fill="#BFC5D3"/>
<circle cx="199.5" cy="341.5" r="2.5" fill="#BFC5D3"/>
<circle cx="199.5" cy="391.5" r="2.5" fill="#BFC5D3"/>
<circle cx="199.5" cy="441.5" r="2.5" fill="#BFC5D3"/>
<circle cx="199.5" cy="491.5" r="2.5" fill="#BFC5D3"/>
<circle cx="199.5" cy="541.5" r="2.5" fill="#BFC5D3"/>
<circle cx="149.5" cy="291.5" r="2.5" fill="#BFC5D3"/>
<circle cx="149.5" cy="341.5" r="2.5" fill="#BFC5D3"/>
<circle cx="149.5" cy="391.5" r="2.5" fill="#BFC5D3"/>
<circle cx="149.5" cy="441.5" r="2.5" fill="#BFC5D3"/>
<circle cx="149.5" cy="491.5" r="2.5" fill="#BFC5D3"/>
<circle cx="149.5" cy="541.5" r="2.5" fill="#BFC5D3"/>
<defs>
<filter id="filter0_d_101_5" x="1109" y="384" width="313" height="335" filterUnits="userSpaceOnUse" color-interpolation-filters="sRGB">
<feFlood flood-opacity="0" result="BackgroundImageFix"/>
<feColorMatrix in="SourceAlpha" type="matrix" values="0 0 0 0 0 0 0 0 0 0 0 0 0 0 0 0 0 0 127 0" result="hardAlpha"/>
<feOffset dy="8"/>
<feGaussianBlur stdDeviation="12"/>
<feComposite in2="hardAlpha" operator="out"/>
<feColorMatrix type="matrix" values="0 0 0 0 0 0 0 0 0 0 0 0 0 0 0 0 0 0 0.15 0"/>
<feBlend mode="normal" in2="BackgroundImageFix" result="effect1_dropShadow_101_5"/>
<feBlend mode="normal" in="SourceGraphic" in2="effect1_dropShadow_101_5" result="shape"/>
</filter>
</defs>
</svg>
